# xmcd CD database file
#
# Track frame offsets:
#	150
#	16101
#	30448
#	43797
#	56823
#	71971
#	90593
#	107069
#	121318
#	135492
#	149341
#	166914
#	184088
#	199761
#	216055
#	229534
#
# Disc length: 3234 seconds
#
# Revision: 3
# Processed by: cddbd v1.5.2PL0 Copyright (c) Steve Scherf et al.
# Submitted via: CDex 1.50Beta7
#
DISCID=dc0ca010
DTITLE=Truck Stop - "...echte Kerle"
DYEAR=2002
DGENRE=Country
TTITLE0=Trucker lieben die Freiheit
TTITLE1=Country Boy
TTITLE2=Der wilde, wilde Westen
TTITLE3=Kanten, Falten, Ecken
TTITLE4=Echte Kerle
TTITLE5=Route 66
TTITLE6=Angeln entspannt (Live)
TTITLE7=Cowboys küssen besser
TTITLE8=Das süsse Leben auf dem Land
TTITLE9=Komm ma' auf'n Punkt
TTITLE10=Träume von den Cowboys
TTITLE11=Heimat ist überall
TTITLE12=Wenn ein Stern vom Himmel fällt
TTITLE13=Ich möcht so gern Dave Dudley hör'n (Live)
TTITLE14=Take It Easy, altes Haus (Live)
TTITLE15=Sein Name ist...
EXTD=YEAR: 2002
EXTT0=
EXTT1=
EXTT2=
EXTT3=
EXTT4=
EXTT5=
EXTT6=
EXTT7=
EXTT8=
EXTT9=
EXTT10=
EXTT11=
EXTT12=
EXTT13=
EXTT14=
EXTT15=
PLAYORDER=
